<svg width="21" height="21" viewBox="0 0 21 21" fill="none" xmlns="http://www.w3.org/2000/svg">
<path d="M20.8169 4.16748C20.7439 4.08012 20.6526 4.00986 20.5494 3.96165C20.4463 3.91344 20.3338 3.88846 20.22 3.88848H4.53783L4.06247 1.27737C3.99736 0.91898 3.80853 0.594812 3.52891 0.361378C3.24929 0.127944 2.89661 5.26446e-05 2.53236 0H0.777691C0.571435 0 0.373626 0.0819356 0.227781 0.227782C0.0819351 0.373629 0 0.571439 0 0.777697C0 0.983955 0.0819351 1.18177 0.227781 1.32761C0.373626 1.47346 0.571435 1.55539 0.777691 1.55539H2.5275L5.01222 15.1933C5.08541 15.5977 5.26416 15.9757 5.53036 16.2889C5.16294 16.632 4.89775 17.0703 4.76419 17.555C4.63063 18.0396 4.63392 18.5519 4.77369 19.0348C4.91346 19.5177 5.18426 19.9525 5.55605 20.291C5.92784 20.6294 6.38609 20.8582 6.88 20.9521C7.37391 21.046 7.88417 21.0013 8.3542 20.8229C8.82424 20.6444 9.23568 20.3393 9.5429 19.9414C9.85012 19.5434 10.0411 19.0681 10.0947 18.5682C10.1483 18.0684 10.0624 17.5634 9.84655 17.1093H14.2619C14.0879 17.4736 13.9979 17.8722 13.9984 18.2759C13.9984 18.8142 14.1581 19.3405 14.4572 19.7881C14.7563 20.2357 15.1814 20.5846 15.6787 20.7906C16.1761 20.9966 16.7234 21.0505 17.2514 20.9455C17.7794 20.8405 18.2644 20.5812 18.6451 20.2006C19.0257 19.8199 19.285 19.3349 19.39 18.8069C19.495 18.2789 19.4411 17.7316 19.2351 17.2342C19.0291 16.7369 18.6802 16.3118 18.2326 16.0127C17.785 15.7136 17.2587 15.5539 16.7204 15.5539H7.30738C7.12526 15.5539 6.94892 15.49 6.80911 15.3732C6.6693 15.2565 6.57488 15.0944 6.54233 14.9153L6.23417 13.2208H17.5107C18.0571 13.2208 18.5861 13.0289 19.0055 12.6788C19.425 12.3286 19.7082 11.8424 19.8059 11.3048L20.9879 4.80519C21.008 4.69286 21.003 4.57749 20.9734 4.46728C20.9439 4.35707 20.8904 4.25472 20.8169 4.16748ZM8.55461 18.2759C8.55461 18.5066 8.48619 18.7321 8.35801 18.924C8.22983 19.1158 8.04764 19.2653 7.83448 19.3536C7.62133 19.4419 7.38677 19.465 7.16049 19.42C6.9342 19.375 6.72635 19.2639 6.5632 19.1007C6.40006 18.9376 6.28896 18.7297 6.24395 18.5035C6.19894 18.2772 6.22204 18.0426 6.31033 17.8295C6.39862 17.6163 6.54814 17.4341 6.73998 17.3059C6.93181 17.1777 7.15735 17.1093 7.38807 17.1093C7.69745 17.1093 7.99417 17.2322 8.21294 17.451C8.4317 17.6698 8.55461 17.9665 8.55461 18.2759ZM17.8869 18.2759C17.8869 18.5066 17.8185 18.7321 17.6903 18.924C17.5621 19.1158 17.3799 19.2653 17.1668 19.3536C16.9536 19.4419 16.7191 19.465 16.4928 19.42C16.2665 19.375 16.0586 19.2639 15.8955 19.1007C15.7324 18.9376 15.6213 18.7297 15.5762 18.5035C15.5312 18.2772 15.5543 18.0426 15.6426 17.8295C15.7309 17.6163 15.8804 17.4341 16.0723 17.3059C16.2641 17.1777 16.4896 17.1093 16.7204 17.1093C17.0298 17.1093 17.3265 17.2322 17.5452 17.451C17.764 17.6698 17.8869 17.9665 17.8869 18.2759ZM18.2757 11.0268C18.2431 11.2065 18.1483 11.3689 18.0079 11.4857C17.8674 11.6025 17.6904 11.6661 17.5078 11.6655H5.95128L4.82071 5.44388H19.2877L18.2757 11.0268Z" fill="white"/>
</svg>
