<?xml version="1.0" encoding="utf-8"?>
<!-- Generator: Adobe Illustrator 25.4.1, SVG Export Plug-In . SVG Version: 6.00 Build 0)  -->
<svg version="1.1" id="圖層_1" xmlns="http://www.w3.org/2000/svg" xmlns:xlink="http://www.w3.org/1999/xlink" x="0px" y="0px"
	 viewBox="0 0 15.06 15.02" style="enable-background:new 0 0 15.06 15.02;" xml:space="preserve">
<style type="text/css">
	.st0{fill:none;stroke:#FFFFFF;stroke-width:1.5;stroke-linecap:round;stroke-linejoin:round;}
</style>
<path class="st0" d="M0.74,2.3c0-0.83,0.67-1.5,1.5-1.5H4.7C5.03,0.8,5.31,1,5.41,1.31l1.12,3.37C6.66,5.03,6.5,5.42,6.16,5.59
	L4.47,6.43c0.83,1.83,2.3,3.31,4.14,4.14l0.85-1.69c0.17-0.33,0.55-0.49,0.91-0.38l3.37,1.12c0.31,0.1,0.51,0.39,0.51,0.71v2.46
	c0,0.83-0.67,1.5-1.5,1.5h-0.75C5.78,14.3,0.74,9.26,0.74,3.05V2.3z"/>
</svg>
