<?xml version="1.0" encoding="utf-8"?>
<!-- Generator: Adobe Illustrator 25.4.1, SVG Export Plug-In . SVG Version: 6.00 Build 0)  -->
<svg version="1.1" id="圖層_1" xmlns="http://www.w3.org/2000/svg" xmlns:xlink="http://www.w3.org/1999/xlink" x="0px" y="0px"
	 viewBox="0 0 27.17 27.09" style="enable-background:new 0 0 27.17 27.09;" xml:space="preserve">
<style type="text/css">
	.st0{fill:#F9FAF8;fill-opacity:0.12;}
	.st1{fill-rule:evenodd;clip-rule:evenodd;fill:#FFFFFF;}
</style>
<circle class="st0" cx="13.59" cy="13.52" r="13.59"/>
<path class="st1" d="M14.19,6.95c-3.48,0-6.29,2.8-6.29,6.29c0,2.78,1.81,5.14,4.3,5.97c0.31,0.05,0.42-0.13,0.42-0.31
	c0-0.16,0-0.55,0-1.07c-1.76,0.39-2.12-0.84-2.12-0.84c-0.29-0.73-0.71-0.92-0.71-0.92c-0.58-0.39,0.05-0.39,0.05-0.39
	c0.63,0.05,0.97,0.66,0.97,0.66c0.55,0.97,1.47,0.68,1.83,0.52c0.05-0.42,0.21-0.68,0.39-0.84c-1.39-0.16-2.86-0.71-2.86-3.12
	c0-0.68,0.24-1.26,0.65-1.68c-0.05-0.16-0.29-0.79,0.05-1.68c0,0,0.52-0.16,1.73,0.65c0.5-0.13,1.05-0.21,1.57-0.21
	c0.52,0,1.07,0.08,1.57,0.21c1.21-0.81,1.73-0.65,1.73-0.65c0.34,0.86,0.13,1.49,0.05,1.68c0.39,0.45,0.65,1,0.65,1.68
	c0,2.41-1.47,2.93-2.88,3.09c0.24,0.18,0.42,0.58,0.42,1.15c0,0.84,0,1.52,0,1.73c0,0.16,0.1,0.37,0.45,0.31
	c2.49-0.81,4.3-3.17,4.3-5.95C20.48,9.76,17.68,6.95,14.19,6.95z"/>
</svg>
