<svg width="23" height="23" viewBox="0 0 23 23" fill="none" xmlns="http://www.w3.org/2000/svg">
<g id="&#230;&#184;&#155;&#228;&#184;&#128;">
<path id="Vector" d="M22.0937 11.334C22.0937 9.09238 21.4459 6.90106 20.232 5.03719C19.0182 3.17331 17.2929 1.7206 15.2743 0.862757C13.2558 0.00491048 11.0346 -0.219541 8.89174 0.217785C6.74886 0.655111 4.78049 1.73457 3.23556 3.31967C1.69063 4.90476 0.638515 6.92429 0.21227 9.12288C-0.213976 11.3215 0.00478876 13.6004 0.8409 15.6714C1.67701 17.7424 3.09292 19.5125 4.90957 20.7579C6.72621 22.0033 8.86201 22.6681 11.0469 22.6681C13.9757 22.6649 16.7838 21.4698 18.8548 19.3449C20.9258 17.2201 22.0907 14.339 22.0937 11.334ZM1.69953 11.334C1.69953 9.43725 2.24774 7.58306 3.27484 6.00593C4.30194 4.42881 5.76179 3.19959 7.4698 2.47372C9.17781 1.74785 11.0572 1.55793 12.8705 1.92798C14.6837 2.29802 16.3492 3.21141 17.6565 4.55265C18.9637 5.89388 19.854 7.60271 20.2146 9.46306C20.5753 11.3234 20.3902 13.2517 19.6827 15.0041C18.9752 16.7565 17.7772 18.2543 16.24 19.3081C14.7028 20.3619 12.8956 20.9244 11.0469 20.9244C8.56867 20.9215 6.19277 19.9102 4.44041 18.1122C2.68805 16.3143 1.70234 13.8767 1.69953 11.334ZM13.3476 16.3101C13.2687 16.3912 13.175 16.4555 13.0718 16.4994C12.9686 16.5432 12.8581 16.5658 12.7464 16.5658C12.6347 16.5658 12.5241 16.5432 12.421 16.4994C12.3178 16.4555 12.2241 16.3912 12.1452 16.3101L7.8964 11.9509C7.81739 11.8699 7.75471 11.7737 7.71195 11.6679C7.66918 11.5621 7.64717 11.4486 7.64717 11.334C7.64717 11.2195 7.66918 11.106 7.71195 11.0002C7.75471 10.8943 7.81739 10.7982 7.8964 10.7172L12.1452 6.35796C12.3046 6.19437 12.5209 6.10246 12.7464 6.10246C12.9719 6.10246 13.1882 6.19437 13.3476 6.35796C13.5071 6.52156 13.5966 6.74344 13.5966 6.97479C13.5966 7.20615 13.5071 7.42803 13.3476 7.59163L9.69895 11.334L13.3476 15.0764C13.4266 15.1574 13.4893 15.2536 13.532 15.3594C13.5748 15.4653 13.5968 15.5787 13.5968 15.6933C13.5968 15.8079 13.5748 15.9213 13.532 16.0271C13.4893 16.133 13.4266 16.2291 13.3476 16.3101Z" fill="#AEAEAE"/>
</g>
</svg>
