<?xml version="1.0" encoding="utf-8"?>
<!-- Generator: Adobe Illustrator 25.4.1, SVG Export Plug-In . SVG Version: 6.00 Build 0)  -->
<svg version="1.1" id="圖層_1" xmlns="http://www.w3.org/2000/svg" xmlns:xlink="http://www.w3.org/1999/xlink" x="0px" y="0px"
	 viewBox="0 0 27.15 27.24" style="enable-background:new 0 0 27.15 27.24;" xml:space="preserve">
<style type="text/css">
	.st0{fill:#F9FAF8;fill-opacity:0.12;}
	.st1{fill:#FFFFFF;}
</style>
<circle class="st0" cx="13.58" cy="13.66" r="13.59"/>
<path class="st1" d="M13.58,8.27c1.76,0,1.96,0.01,2.66,0.04c0.42,0.01,0.83,0.08,1.22,0.23c0.28,0.11,0.54,0.28,0.76,0.49
	s0.38,0.47,0.49,0.76c0.14,0.39,0.22,0.8,0.23,1.22c0.03,0.69,0.04,0.9,0.04,2.66c0,1.76-0.01,1.96-0.04,2.66
	c-0.01,0.42-0.08,0.83-0.23,1.22c-0.11,0.28-0.28,0.54-0.49,0.76c-0.21,0.21-0.47,0.38-0.76,0.49c-0.39,0.14-0.8,0.22-1.22,0.23
	c-0.69,0.03-0.9,0.04-2.66,0.04s-1.96-0.01-2.66-0.04c-0.42-0.01-0.83-0.08-1.22-0.23c-0.28-0.11-0.54-0.28-0.76-0.49
	c-0.21-0.21-0.38-0.47-0.49-0.76c-0.14-0.39-0.22-0.8-0.23-1.22c-0.03-0.69-0.04-0.9-0.04-2.66c0-1.76,0.01-1.96,0.04-2.66
	c0.01-0.42,0.08-0.83,0.23-1.22C8.56,9.5,8.73,9.24,8.94,9.03S9.42,8.65,9.7,8.54c0.39-0.14,0.8-0.22,1.22-0.23
	C11.61,8.28,11.82,8.27,13.58,8.27z M13.58,7.09c-1.78,0-2.01,0.01-2.71,0.04c-0.55,0.01-1.09,0.11-1.6,0.31
	C8.83,7.6,8.43,7.86,8.11,8.19C7.77,8.52,7.51,8.92,7.35,9.36c-0.19,0.51-0.29,1.05-0.31,1.6C7.01,11.65,7,11.88,7,13.66
	c0,1.78,0.01,2.01,0.04,2.71c0.01,0.55,0.11,1.09,0.31,1.6c0.17,0.44,0.42,0.84,0.76,1.16c0.33,0.33,0.73,0.59,1.16,0.76
	c0.51,0.19,1.05,0.29,1.6,0.31c0.7,0.03,0.93,0.04,2.71,0.04s2.01-0.01,2.71-0.04c0.55-0.01,1.09-0.11,1.6-0.31
	c0.44-0.17,0.83-0.43,1.16-0.76c0.33-0.33,0.59-0.73,0.76-1.16c0.19-0.51,0.29-1.05,0.31-1.6c0.03-0.7,0.04-0.93,0.04-2.71
	c0-1.78-0.01-2.01-0.04-2.71c-0.01-0.55-0.11-1.09-0.31-1.6c-0.17-0.44-0.42-0.84-0.76-1.16c-0.33-0.33-0.73-0.59-1.16-0.76
	c-0.51-0.19-1.05-0.29-1.6-0.31C15.59,7.1,15.36,7.09,13.58,7.09z"/>
<path class="st1" d="M13.58,10.29c-0.67,0-1.32,0.2-1.88,0.57c-0.56,0.37-0.99,0.9-1.24,1.51c-0.26,0.62-0.32,1.3-0.19,1.95
	c0.13,0.65,0.45,1.26,0.92,1.73c0.47,0.47,1.07,0.79,1.73,0.92c0.65,0.13,1.33,0.06,1.95-0.19c0.62-0.26,1.14-0.69,1.51-1.24
	c0.37-0.56,0.57-1.21,0.57-1.88c0-0.9-0.36-1.75-0.99-2.39C15.33,10.64,14.47,10.29,13.58,10.29z M13.58,15.86
	c-0.43,0-0.86-0.13-1.22-0.37c-0.36-0.24-0.64-0.58-0.81-0.98c-0.17-0.4-0.21-0.84-0.12-1.27c0.08-0.43,0.29-0.82,0.6-1.12
	c0.31-0.31,0.7-0.52,1.12-0.6c0.43-0.08,0.87-0.04,1.27,0.12c0.4,0.17,0.74,0.45,0.98,0.81c0.24,0.36,0.37,0.78,0.37,1.22
	c0,0.58-0.23,1.14-0.64,1.55C14.71,15.63,14.16,15.86,13.58,15.86z"/>
<path class="st1" d="M17.1,10.94c0.44,0,0.79-0.35,0.79-0.79c0-0.44-0.35-0.79-0.79-0.79c-0.44,0-0.79,0.35-0.79,0.79
	C16.31,10.59,16.66,10.94,17.1,10.94z"/>
</svg>
