<svg width="22" height="23" viewBox="0 0 22 23" fill="none" xmlns="http://www.w3.org/2000/svg">
<g id="&#229;&#138;&#160;&#228;&#184;&#128;">
<path id="Vector" d="M21.9053 11.2376C21.9053 9.01501 21.2629 6.84233 20.0594 4.99432C18.8559 3.14631 17.1453 1.70596 15.1439 0.855415C13.1425 0.00486869 10.9403 -0.217673 8.81561 0.215932C6.69096 0.649536 4.73934 1.71981 3.20756 3.29142C1.67577 4.86302 0.632614 6.86537 0.209995 9.04525C-0.212624 11.2251 0.0042795 13.4846 0.833276 15.538C1.66227 17.5914 3.06613 19.3465 4.86732 20.5813C6.66851 21.8161 8.78613 22.4752 10.9524 22.4752C13.8563 22.472 16.6405 21.2871 18.6939 19.1803C20.7473 17.0735 21.9022 14.217 21.9053 11.2376ZM1.68459 11.2376C1.68459 9.35694 2.22814 7.51853 3.2465 5.95482C4.26486 4.39112 5.7123 3.17237 7.40577 2.45267C9.09924 1.73298 10.9627 1.54468 12.7605 1.91157C14.5582 2.27847 16.2096 3.18409 17.5057 4.51391C18.8019 5.84373 19.6845 7.53802 20.0421 9.38253C20.3997 11.227 20.2162 13.1389 19.5147 14.8764C18.8133 16.6139 17.6254 18.099 16.1013 19.1438C14.5772 20.1886 12.7854 20.7463 10.9524 20.7463C8.49528 20.7435 6.1396 19.7407 4.40215 17.9581C2.6647 16.1755 1.68738 13.7586 1.68459 11.2376ZM9.86344 16.1713C9.78516 16.2516 9.69223 16.3153 9.58995 16.3588C9.48767 16.4023 9.37805 16.4246 9.26735 16.4246C9.15664 16.4246 9.04702 16.4023 8.94475 16.3588C8.84247 16.3153 8.74954 16.2516 8.67126 16.1713C8.59298 16.091 8.53089 15.9957 8.48852 15.8907C8.44616 15.7858 8.42435 15.6733 8.42435 15.5597C8.42435 15.4462 8.44616 15.3337 8.48852 15.2288C8.53089 15.1238 8.59298 15.0285 8.67126 14.9482L12.2889 11.2376L8.67126 7.52703C8.59298 7.44671 8.53089 7.35136 8.48852 7.24643C8.44616 7.14149 8.42435 7.02902 8.42435 6.91544C8.42435 6.80186 8.44616 6.68939 8.48852 6.58445C8.53089 6.47952 8.59298 6.38417 8.67126 6.30386C8.74954 6.22354 8.84247 6.15983 8.94475 6.11637C9.04702 6.0729 9.15664 6.05053 9.26735 6.05053C9.37805 6.05053 9.48767 6.0729 9.58995 6.11637C9.69223 6.15983 9.78516 6.22354 9.86344 6.30386L14.0761 10.626C14.1544 10.7063 14.2166 10.8016 14.259 10.9066C14.3014 11.0115 14.3232 11.124 14.3232 11.2376C14.3232 11.3512 14.3014 11.4637 14.259 11.5686C14.2166 11.6736 14.1544 11.7689 14.0761 11.8492L9.86344 16.1713Z" fill="#AEAEAE"/>
</g>
</svg>
