<?xml version="1.0" encoding="utf-8"?>
<!-- Generator: Adobe Illustrator 25.4.1, SVG Export Plug-In . SVG Version: 6.00 Build 0)  -->
<svg version="1.1" id="圖層_1" xmlns="http://www.w3.org/2000/svg" xmlns:xlink="http://www.w3.org/1999/xlink" x="0px" y="0px"
	 viewBox="0 0 332.34 39.56" style="enable-background:new 0 0 332.34 39.56;" xml:space="preserve">
<style type="text/css">
	.st0{fill:#474747;}
</style>
<path class="st0" d="M25.34,36.61L14.81,11.44c0,0-0.03-0.03-0.09-0.09c-0.03-0.09-0.07-0.17-0.13-0.26
	c-0.06-0.11-0.1-0.2-0.13-0.26c-0.03-0.09-0.04-0.13-0.04-0.13c0.23-1.05,0.3-1.82,0.21-2.3c-0.06-0.51-0.34-0.85-0.85-1.02
	c-0.48-0.2-1.28-0.31-2.39-0.34l0.21-0.85c0.46,0.03,1.01,0.06,1.66,0.09c0.68,0.03,1.39,0.04,2.13,0.04c1.34,0,2.49-0.04,3.46-0.13
	l8.7,21.85c0,0-0.03,0.21-0.09,0.64c-0.06,0.4-0.14,0.92-0.26,1.58c-0.09,0.63-0.18,1.31-0.3,2.05c-0.11,0.74-0.23,1.44-0.34,2.09
	c-0.09,0.65-0.16,1.19-0.21,1.62c-0.06,0.4-0.09,0.6-0.09,0.6H25.34z M38.4,5.04c-0.77,0.03-1.45,0.26-2.05,0.68
	c-0.57,0.4-1.07,0.92-1.49,1.58c-1.31,1.93-2.65,5.33-4.01,10.2c-1.37,4.86-2.89,11.24-4.57,19.11l-0.6-1.19
	c0.43-1.91,0.88-3.95,1.37-6.14c0.48-2.22,1-4.44,1.54-6.66c0.57-2.22,1.14-4.34,1.71-6.36c0.6-2.02,1.21-3.83,1.83-5.42
	c0.65-1.62,1.31-2.92,1.96-3.88c0.54-0.77,1.18-1.41,1.92-1.92c0.74-0.54,1.64-0.81,2.69-0.81c1.19,0,2.08,0.31,2.65,0.94
	c0.57,0.6,0.85,1.32,0.85,2.18c0,1-0.31,1.86-0.94,2.6c-0.63,0.71-1.45,1.07-2.47,1.07c-0.82,0-1.45-0.23-1.88-0.68
	c-0.4-0.46-0.6-0.98-0.6-1.58c0-0.82,0.24-1.55,0.73-2.18c0.51-0.63,1.14-1.08,1.88-1.37c-0.09-0.06-0.17-0.1-0.26-0.13
	C38.6,5.06,38.51,5.04,38.4,5.04z M3.8,38.75c0.8-0.03,1.48-0.26,2.05-0.68c0.6-0.4,1.12-0.94,1.58-1.62
	c0.82-1.31,1.65-3.36,2.47-6.14c0.85-2.79,1.71-6.16,2.56-10.11c0.88-3.95,1.76-8.29,2.65-13.01l0.73,0.9
	c-0.46,2.33-0.94,4.71-1.45,7.13c-0.48,2.39-0.98,4.74-1.49,7.04c-0.51,2.28-1.04,4.39-1.58,6.36c-0.54,1.96-1.08,3.67-1.62,5.12
	c-0.54,1.42-1.07,2.47-1.58,3.16c-0.51,0.68-1.12,1.29-1.83,1.83c-0.68,0.57-1.59,0.85-2.73,0.85c-1.22,0-2.12-0.31-2.69-0.94
	C0.28,38.02,0,37.28,0,36.4c0-0.97,0.31-1.81,0.94-2.52c0.63-0.74,1.45-1.11,2.47-1.11c0.85,0,1.48,0.23,1.88,0.68
	c0.4,0.46,0.6,0.98,0.6,1.58c0,0.82-0.26,1.55-0.77,2.18c-0.48,0.63-1.08,1.08-1.79,1.37c0.06,0.06,0.13,0.1,0.21,0.13
	C3.63,38.73,3.71,38.75,3.8,38.75z M70.41,0.35c0.91,0,1.61,0.27,2.09,0.81c0.48,0.54,0.73,1.18,0.73,1.92
	c0,0.8-0.24,1.51-0.73,2.13c-0.46,0.63-1.1,1.14-1.92,1.54c-0.8,0.43-1.78,0.75-2.94,0.98c-1.17,0.23-2.52,0.34-4.05,0.34
	c-1.08,0-2.22-0.06-3.41-0.17c-1.19-0.11-2.4-0.24-3.63-0.38c-1.22-0.14-2.43-0.27-3.63-0.38c-1.19-0.11-2.32-0.17-3.37-0.17
	c-0.94,0-1.85,0.06-2.73,0.17c-0.88,0.09-1.58,0.27-2.09,0.55c0.57,0.23,1.04,0.63,1.41,1.19c0.4,0.57,0.6,1.22,0.6,1.96
	c0,0.82-0.27,1.56-0.81,2.22C45.41,13.69,44.7,14,43.79,14c-0.85,0-1.51-0.28-1.96-0.85c-0.46-0.57-0.68-1.25-0.68-2.05
	c0-0.65,0.17-1.34,0.51-2.05c0.37-0.74,1.07-1.37,2.09-1.88c0.65-0.31,1.35-0.54,2.09-0.68c0.74-0.14,1.44-0.23,2.09-0.26
	c0.65-0.03,1.17-0.04,1.54-0.04c1.74,0,3.41,0.09,5.03,0.26c1.62,0.17,3.21,0.34,4.78,0.51c1.56,0.17,3.11,0.26,4.65,0.26
	c1.19,0,2.19-0.06,2.99-0.17c0.82-0.14,1.55-0.36,2.18-0.64L69,6.75c-0.37-0.34-0.73-0.78-1.07-1.32c-0.31-0.57-0.47-1.22-0.47-1.96
	c0-0.85,0.26-1.58,0.77-2.18C68.78,0.66,69.5,0.35,70.41,0.35z M54.88,7c0,0,0.18,0.01,0.55,0.04c0.4,0.03,0.88,0.07,1.45,0.13
	c0.57,0.06,1.14,0.11,1.71,0.17c0.57,0.06,1.04,0.1,1.41,0.13c0.37,0.03,0.55,0.04,0.55,0.04l-6.31,23.94
	c-0.28,1.05-0.4,1.86-0.34,2.43c0.09,0.57,0.4,0.98,0.94,1.24c0.57,0.23,1.44,0.37,2.6,0.43l-0.17,0.85
	c-0.85-0.06-1.95-0.09-3.29-0.09c-1.31-0.03-2.67-0.04-4.1-0.04c-1.39,0-2.73,0.01-4.01,0.04c-1.28,0-2.3,0.03-3.07,0.09l0.17-0.85
	c1.19-0.06,2.12-0.2,2.77-0.43c0.68-0.26,1.21-0.67,1.58-1.24c0.4-0.6,0.75-1.41,1.07-2.43L54.88,7z M92.83,12.51
	c0.37-1.39,0.54-2.46,0.51-3.2c-0.03-0.74-0.3-1.28-0.81-1.62c-0.48-0.34-1.28-0.55-2.39-0.64l0.26-0.85
	c0.51,0.03,1.19,0.06,2.05,0.09c0.88,0.03,1.69,0.04,2.43,0.04c0.71,0,1.41-0.01,2.09-0.04c0.68-0.03,1.27-0.06,1.75-0.09
	l-0.26,0.85c-0.94,0.09-1.69,0.3-2.26,0.64c-0.54,0.31-1,0.82-1.37,1.54c-0.34,0.68-0.67,1.66-0.98,2.94l-3.07,11.82
	c-1.02,3.93-2.42,6.94-4.18,9.05c-1.02,1.19-2.3,2.16-3.84,2.9C81.26,36.64,79.62,37,77.86,37c-1.85,0-3.43-0.26-4.74-0.77
	c-1.28-0.54-2.28-1.28-2.99-2.22c-0.82-1.14-1.24-2.47-1.24-4.01c0-1.56,0.31-3.53,0.94-5.89l3.54-13.4c0.28-1.05,0.4-1.82,0.34-2.3
	c-0.06-0.51-0.31-0.85-0.77-1.02c-0.43-0.2-1.12-0.31-2.09-0.34l0.26-0.85c0.68,0.03,1.61,0.06,2.77,0.09
	c1.19,0.03,2.45,0.04,3.75,0.04c1.17,0,2.29-0.01,3.37-0.04c1.08-0.03,2.02-0.06,2.82-0.09l-0.26,0.85
	c-0.97,0.03-1.72,0.14-2.26,0.34c-0.54,0.17-0.97,0.51-1.28,1.02c-0.28,0.48-0.57,1.25-0.85,2.3l-3.75,14.12
	c-0.43,1.65-0.73,3.14-0.9,4.48c-0.14,1.31-0.11,2.43,0.09,3.37c0.23,0.91,0.67,1.61,1.32,2.09c0.65,0.48,1.56,0.73,2.73,0.73
	c2.13,0,3.91-0.47,5.33-1.41c1.42-0.97,2.59-2.29,3.5-3.97c0.91-1.68,1.64-3.57,2.18-5.67L92.83,12.51z M96.4,30
	c-0.94,1.34-1.46,2.4-1.58,3.2c-0.09,0.8,0.17,1.38,0.77,1.75c0.63,0.34,1.51,0.54,2.65,0.6l-0.17,0.85
	c-1.08-0.06-2.06-0.09-2.94-0.09c-0.85-0.03-1.66-0.04-2.43-0.04c-0.65,0-1.21,0.01-1.66,0.04c-0.46,0-0.91,0.03-1.37,0.09
	l0.21-0.85c0.46-0.11,0.91-0.31,1.37-0.6c0.46-0.31,0.95-0.75,1.49-1.32c0.51-0.6,1.11-1.38,1.79-2.35l18.01-25.3
	c0.26,0.03,0.53,0.04,0.81,0.04c0.31,0,0.6-0.01,0.85-0.04l1.71,26.84c0.08,1.02,0.34,1.74,0.77,2.13c0.45,0.37,0.9,0.57,1.32,0.6
	l-0.17,0.85c-0.68-0.06-1.56-0.09-2.65-0.09c-1.05-0.03-2.06-0.04-3.03-0.04c-1.19,0-2.33,0.01-3.41,0.04
	c-1.08,0-1.93,0.03-2.56,0.09l0.17-0.85c1.37-0.06,2.33-0.3,2.9-0.73c0.57-0.46,0.82-1.41,0.77-2.86l-1.11-20.14l1.11-1.02L96.4,30z
	 M100.2,24.11h12.46l-0.34,0.85H99.43L100.2,24.11z M139.82,31.88c-0.26,1.02-0.37,1.79-0.34,2.3c0.03,0.51,0.27,0.85,0.73,1.02
	c0.46,0.17,1.17,0.28,2.13,0.34l-0.17,0.85c-0.74-0.06-1.68-0.09-2.82-0.09c-1.14-0.03-2.29-0.04-3.46-0.04
	c-1.31,0-2.53,0.01-3.67,0.04c-1.11,0-2.03,0.03-2.77,0.09l0.21-0.85c0.94-0.06,1.66-0.17,2.18-0.34c0.54-0.17,0.97-0.51,1.28-1.02
	s0.6-1.28,0.85-2.3l5.63-21.16c0.29-1.05,0.4-1.82,0.34-2.3c-0.06-0.51-0.31-0.85-0.77-1.02c-0.43-0.2-1.12-0.31-2.09-0.34
	l0.21-0.85c0.68,0.03,1.59,0.06,2.73,0.09c1.17,0.03,2.4,0.04,3.71,0.04c1.17,0,2.3-0.01,3.41-0.04c1.14-0.03,2.1-0.06,2.9-0.09
	l-0.21,0.85c-0.97,0.03-1.72,0.14-2.26,0.34c-0.54,0.17-0.97,0.51-1.28,1.02c-0.28,0.48-0.57,1.25-0.85,2.3L139.82,31.88z
	 M154.93,34.14c0.6,0,1.1-0.23,1.49-0.68c0.43-0.48,0.8-1.19,1.11-2.13l0.73-2.18h0.85L158,32.43c-0.54,1.56-1.29,2.72-2.26,3.46
	c-0.94,0.74-2.03,1.11-3.29,1.11c-1.65,0-2.84-0.47-3.58-1.41c-0.74-0.94-1.02-2.22-0.85-3.84l0.68-5.59
	c0.11-1.17,0.13-2.08,0.04-2.73c-0.08-0.68-0.26-1.21-0.51-1.58c-0.26-0.4-0.63-0.74-1.11-1.02l0.08-0.43
	c1.34,0.11,2.46,0.3,3.37,0.55c0.94,0.26,1.69,0.65,2.26,1.19c0.57,0.51,0.95,1.22,1.15,2.13c0.23,0.88,0.28,2.05,0.17,3.5
	l-0.38,4.61c-0.03,0.51,0.03,0.94,0.17,1.28C154.12,33.98,154.44,34.14,154.93,34.14z M147.72,21.04c-1.54,0.43-2.59,0.58-3.16,0.47
	c-0.54-0.11-0.78-0.4-0.73-0.85c0.03-0.43,0.31-0.7,0.85-0.81c0.54-0.14,1.55,0,3.03,0.43V21.04z M157.44,7.26
	c-0.51,0.54-0.95,1.25-1.32,2.13c-0.34,0.85-0.67,1.79-0.98,2.82c-0.31,1-0.67,2.01-1.07,3.03c-0.37,1-0.85,1.92-1.45,2.77
	c-0.57,0.82-1.29,1.49-2.18,2.01c-0.88,0.48-1.98,0.71-3.29,0.68l0.09-0.43c1.45-0.14,2.6-0.58,3.46-1.32
	c0.88-0.74,1.58-1.66,2.09-2.77c0.51-1.11,0.94-2.26,1.28-3.46c0.37-1.22,0.75-2.36,1.15-3.41c0.4-1.05,0.93-1.91,1.58-2.56
	c0.48-0.46,0.97-0.75,1.45-0.9c0.51-0.17,1-0.26,1.45-0.26c1.17,0,2.05,0.33,2.65,0.98c0.62,0.63,0.92,1.44,0.9,2.43
	c-0.03,0.54-0.17,1.1-0.43,1.66s-0.64,1.05-1.15,1.45c-0.48,0.4-1.1,0.6-1.84,0.6c-0.74,0-1.34-0.23-1.79-0.68
	c-0.46-0.48-0.68-1.1-0.68-1.83c0.03-0.68,0.27-1.37,0.73-2.05c0.48-0.71,1.11-1.27,1.88-1.66c-0.09,0-0.17-0.01-0.26-0.04
	c-0.06-0.03-0.16-0.04-0.3-0.04c-0.46,0.03-0.82,0.11-1.11,0.26C158.01,6.81,157.73,7,157.44,7.26z M170.05,31.88
	c-0.26,1.02-0.37,1.79-0.34,2.3c0.03,0.51,0.27,0.85,0.73,1.02c0.46,0.17,1.17,0.28,2.13,0.34l-0.17,0.85
	c-0.74-0.06-1.69-0.09-2.86-0.09c-1.17-0.03-2.36-0.04-3.58-0.04c-1.28,0-2.48,0.01-3.58,0.04c-1.08,0-1.98,0.03-2.69,0.09
	l0.21-0.85c0.94-0.06,1.66-0.17,2.18-0.34c0.54-0.17,0.97-0.51,1.28-1.02s0.6-1.28,0.85-2.3l5.63-21.16c0.29-1.05,0.4-1.82,0.34-2.3
	c-0.06-0.51-0.31-0.85-0.77-1.02c-0.43-0.2-1.12-0.31-2.09-0.34l0.21-0.85c0.68,0.03,1.58,0.06,2.69,0.09
	c1.11,0.03,2.3,0.04,3.58,0.04c1.22,0,2.4-0.01,3.54-0.04c1.14-0.03,2.12-0.06,2.94-0.09l-0.21,0.85c-0.97,0.03-1.72,0.14-2.26,0.34
	c-0.54,0.17-0.97,0.51-1.28,1.02c-0.28,0.48-0.57,1.25-0.85,2.3L170.05,31.88z M210.01,0.35c0.91,0,1.61,0.27,2.09,0.81
	c0.48,0.54,0.73,1.18,0.73,1.92c0,0.8-0.24,1.51-0.73,2.13c-0.46,0.63-1.1,1.14-1.92,1.54c-0.8,0.43-1.78,0.75-2.94,0.98
	c-1.17,0.23-2.52,0.34-4.05,0.34c-1.08,0-2.22-0.06-3.41-0.17c-1.19-0.11-2.4-0.24-3.63-0.38c-1.22-0.14-2.43-0.27-3.63-0.38
	c-1.2-0.11-2.32-0.17-3.37-0.17c-0.94,0-1.85,0.06-2.73,0.17c-0.88,0.09-1.58,0.27-2.09,0.55c0.57,0.23,1.04,0.63,1.41,1.19
	c0.4,0.57,0.6,1.22,0.6,1.96c0,0.82-0.27,1.56-0.81,2.22c-0.51,0.63-1.22,0.94-2.13,0.94c-0.85,0-1.51-0.28-1.96-0.85
	s-0.68-1.25-0.68-2.05c0-0.65,0.17-1.34,0.51-2.05c0.37-0.74,1.07-1.37,2.09-1.88c0.65-0.31,1.35-0.54,2.09-0.68
	c0.74-0.14,1.44-0.23,2.09-0.26c0.65-0.03,1.17-0.04,1.54-0.04c1.74,0,3.41,0.09,5.04,0.26c1.62,0.17,3.21,0.34,4.78,0.51
	c1.57,0.17,3.12,0.26,4.65,0.26c1.2,0,2.19-0.06,2.99-0.17c0.82-0.14,1.55-0.36,2.18-0.64l-0.09,0.34
	c-0.37-0.34-0.72-0.78-1.07-1.32c-0.31-0.57-0.47-1.22-0.47-1.96c0-0.85,0.26-1.58,0.77-2.18C208.38,0.66,209.1,0.35,210.01,0.35z
	 M194.48,7c0,0,0.18,0.01,0.55,0.04c0.4,0.03,0.88,0.07,1.45,0.13s1.14,0.11,1.71,0.17c0.57,0.06,1.04,0.1,1.41,0.13
	c0.37,0.03,0.55,0.04,0.55,0.04l-6.31,23.94c-0.29,1.05-0.4,1.86-0.34,2.43c0.09,0.57,0.4,0.98,0.94,1.24
	c0.57,0.23,1.44,0.37,2.6,0.43l-0.17,0.85c-0.85-0.06-1.95-0.09-3.29-0.09c-1.31-0.03-2.67-0.04-4.1-0.04
	c-1.39,0-2.73,0.01-4.01,0.04c-1.28,0-2.3,0.03-3.07,0.09l0.17-0.85c1.19-0.06,2.12-0.2,2.77-0.43c0.68-0.26,1.21-0.67,1.58-1.24
	c0.4-0.6,0.75-1.41,1.07-2.43L194.48,7z M236.49,6.19c-0.43,1.11-0.87,2.46-1.32,4.05c-0.46,1.56-0.92,3.48-1.41,5.76h-0.94
	c0.26-1.45,0.35-2.7,0.3-3.75c-0.03-1.08-0.24-1.99-0.64-2.73c-0.54-1.02-1.28-1.78-2.22-2.26c-0.91-0.48-1.92-0.73-3.03-0.73
	c-1.42,0-2.82,0.4-4.18,1.19c-1.34,0.8-2.57,1.89-3.71,3.29c-1.14,1.39-2.15,2.99-3.03,4.78c-0.85,1.79-1.52,3.7-2.01,5.72
	c-0.48,1.99-0.73,3.98-0.73,5.97c0,2.84,0.53,4.96,1.58,6.36c1.08,1.37,2.53,2.05,4.35,2.05c1.08,0,2.25-0.26,3.5-0.77
	c1.25-0.51,2.33-1.25,3.24-2.22c0.77-0.8,1.42-1.71,1.96-2.73c0.57-1.02,1.19-2.36,1.88-4.01h0.94c-0.71,2.59-1.27,4.68-1.66,6.27
	c-0.37,1.56-0.65,2.89-0.85,3.97h-0.94c0.08-0.6,0.13-1.08,0.13-1.45c0-0.63-0.11-0.98-0.34-1.07c-0.23-0.09-0.58,0.03-1.07,0.34
	c-0.74,0.51-1.52,0.98-2.35,1.41c-0.83,0.4-1.72,0.73-2.69,0.98c-0.94,0.26-2.01,0.38-3.2,0.38c-3.61,0-6.34-0.9-8.19-2.69
	c-1.85-1.79-2.77-4.35-2.77-7.68c0-1.99,0.31-3.98,0.94-5.97c0.65-1.99,1.57-3.88,2.73-5.67c1.2-1.82,2.6-3.43,4.22-4.82
	c1.65-1.42,3.47-2.53,5.46-3.33c2.02-0.82,4.18-1.24,6.49-1.24c1.19,0,2.18,0.14,2.94,0.43c0.77,0.26,1.42,0.6,1.96,1.02
	c0.54,0.4,1.01,0.84,1.41,1.32c0.4,0.43,0.78,0.48,1.15,0.17c0.37-0.34,0.77-1.12,1.2-2.35H236.49z M243.75,21.64l0.3-0.85h15.06
	l-0.34,0.85H243.75z M260.3,10.72c0.29-1.05,0.4-1.82,0.34-2.3c-0.03-0.51-0.27-0.85-0.73-1.02c-0.46-0.2-1.17-0.31-2.13-0.34
	L258,6.19c0.74,0.03,1.68,0.06,2.82,0.09c1.14,0.03,2.29,0.04,3.46,0.04c1.31,0,2.53-0.01,3.67-0.04c1.17-0.03,2.1-0.06,2.82-0.09
	l-0.21,0.85c-0.97,0.03-1.72,0.14-2.26,0.34c-0.54,0.17-0.97,0.51-1.28,1.02c-0.28,0.48-0.57,1.25-0.85,2.3l-5.63,21.16
	c-0.26,1.02-0.37,1.79-0.34,2.3c0.03,0.51,0.27,0.85,0.73,1.02c0.46,0.17,1.17,0.28,2.13,0.34l-0.17,0.85
	c-0.68-0.06-1.61-0.09-2.77-0.09c-1.14-0.03-2.36-0.04-3.67-0.04c-1.17,0-2.32,0.01-3.46,0.04c-1.14,0-2.09,0.03-2.86,0.09
	l0.17-0.85c0.97-0.06,1.72-0.17,2.26-0.34c0.54-0.17,0.97-0.51,1.28-1.02c0.31-0.51,0.6-1.28,0.85-2.3L260.3,10.72z M242.68,31.88
	c-0.26,1.02-0.37,1.79-0.34,2.3c0.03,0.51,0.27,0.85,0.73,1.02c0.45,0.17,1.17,0.28,2.13,0.34l-0.17,0.85
	c-0.74-0.06-1.68-0.09-2.82-0.09c-1.14-0.03-2.29-0.04-3.46-0.04c-1.31,0-2.53,0.01-3.67,0.04c-1.11,0-2.03,0.03-2.77,0.09
	l0.21-0.85c0.94-0.06,1.66-0.17,2.18-0.34c0.54-0.17,0.97-0.51,1.28-1.02s0.6-1.28,0.85-2.3l5.63-21.16c0.28-1.05,0.4-1.82,0.34-2.3
	c-0.06-0.51-0.31-0.85-0.77-1.02c-0.43-0.2-1.12-0.31-2.09-0.34l0.21-0.85c0.68,0.03,1.59,0.06,2.73,0.09
	c1.17,0.03,2.4,0.04,3.71,0.04c1.17,0,2.3-0.01,3.41-0.04c1.14-0.03,2.11-0.06,2.9-0.09l-0.21,0.85c-0.97,0.03-1.72,0.14-2.26,0.34
	c-0.54,0.17-0.97,0.51-1.28,1.02c-0.28,0.48-0.57,1.25-0.85,2.3L242.68,31.88z M276.59,21.64l0.21-0.85h8.06l-0.21,0.85H276.59z
	 M281.02,20.79c0.82,0,1.54-0.16,2.13-0.47c0.63-0.34,1.15-0.78,1.58-1.32c0.46-0.54,0.84-1.11,1.15-1.71
	c0.34-0.63,0.63-1.22,0.85-1.79h0.94c-0.45,1.42-0.78,2.53-0.98,3.33c-0.2,0.8-0.41,1.59-0.64,2.39c-0.11,0.51-0.24,1.01-0.38,1.49
	c-0.11,0.48-0.24,1.05-0.38,1.71c-0.11,0.65-0.27,1.49-0.47,2.52h-0.98c0.06-0.6,0.08-1.21,0.08-1.83c0-0.63-0.1-1.19-0.3-1.71
	c-0.17-0.51-0.5-0.92-0.98-1.24c-0.45-0.34-1.12-0.51-2-0.51L281.02,20.79z M292.37,13.87c0.2-1.68,0.2-3,0-3.97
	c-0.2-1-0.64-1.69-1.32-2.09c-0.68-0.43-1.71-0.64-3.07-0.64h-1.92c-0.97,0-1.72,0.09-2.26,0.26c-0.51,0.14-0.92,0.47-1.24,0.98
	c-0.28,0.48-0.57,1.25-0.85,2.3l-5.67,21.16c-0.26,1.02-0.37,1.79-0.34,2.3c0.03,0.51,0.27,0.85,0.73,1.02
	c0.45,0.14,1.17,0.21,2.13,0.21h2.09c1.62,0,2.96-0.24,4.01-0.73c1.05-0.48,1.98-1.27,2.77-2.35c0.8-1.11,1.58-2.6,2.35-4.48h0.94
	c-0.14,0.37-0.3,0.82-0.47,1.37c-0.14,0.54-0.28,1.11-0.43,1.71c-0.14,0.54-0.33,1.32-0.55,2.35c-0.23,1-0.43,2.03-0.6,3.11
	c-1.45-0.06-3.09-0.09-4.91-0.09c-1.79-0.03-3.4-0.04-4.82-0.04c-0.68,0-1.55,0-2.6,0c-1.05,0-2.2,0.01-3.46,0.04
	c-1.22,0-2.46,0.01-3.71,0.04c-1.25,0-2.43,0.01-3.54,0.04l0.17-0.85c0.97-0.06,1.72-0.17,2.26-0.34c0.54-0.17,0.97-0.51,1.28-1.02
	c0.31-0.51,0.6-1.28,0.85-2.3l5.67-21.16c0.29-1.05,0.4-1.82,0.34-2.3c-0.03-0.51-0.27-0.85-0.73-1.02
	c-0.43-0.2-1.12-0.31-2.09-0.34l0.21-0.85c1.11,0.03,2.29,0.06,3.54,0.09c1.25,0,2.49,0.01,3.71,0.04c1.25,0,2.4,0,3.46,0
	c1.05,0,1.92,0,2.6,0c1.28,0,2.72,0,4.31,0c1.59-0.03,3.04-0.07,4.35-0.13c-0.37,1-0.7,1.92-0.98,2.77
	c-0.26,0.82-0.47,1.58-0.64,2.26c-0.14,0.51-0.27,1.01-0.38,1.49c-0.08,0.46-0.16,0.84-0.21,1.15H292.37z M315.49,36.61
	l-10.54-25.17c0,0-0.03-0.03-0.08-0.09c-0.03-0.09-0.07-0.17-0.13-0.26c-0.06-0.11-0.1-0.2-0.13-0.26
	c-0.03-0.09-0.04-0.13-0.04-0.13c0.23-1.05,0.3-1.82,0.21-2.3c-0.06-0.51-0.34-0.85-0.85-1.02c-0.48-0.2-1.28-0.31-2.39-0.34
	l0.21-0.85c0.45,0.03,1.01,0.06,1.66,0.09c0.68,0.03,1.39,0.04,2.13,0.04c1.34,0,2.49-0.04,3.46-0.13l8.7,21.85
	c0,0-0.03,0.21-0.09,0.64c-0.06,0.4-0.14,0.92-0.26,1.58c-0.09,0.63-0.18,1.31-0.3,2.05c-0.11,0.74-0.23,1.44-0.34,2.09
	c-0.08,0.65-0.16,1.19-0.21,1.62c-0.06,0.4-0.09,0.6-0.09,0.6H315.49z M328.54,5.04c-0.77,0.03-1.45,0.26-2.05,0.68
	c-0.57,0.4-1.07,0.92-1.49,1.58c-1.31,1.93-2.64,5.33-4.01,10.2c-1.37,4.86-2.89,11.24-4.57,19.11l-0.6-1.19
	c0.43-1.91,0.88-3.95,1.36-6.14c0.48-2.22,1-4.44,1.54-6.66c0.57-2.22,1.14-4.34,1.71-6.36c0.6-2.02,1.21-3.83,1.83-5.42
	c0.65-1.62,1.31-2.92,1.96-3.88c0.54-0.77,1.18-1.41,1.92-1.92c0.74-0.54,1.64-0.81,2.69-0.81c1.2,0,2.08,0.31,2.65,0.94
	c0.57,0.6,0.85,1.32,0.85,2.18c0,1-0.31,1.86-0.94,2.6c-0.62,0.71-1.45,1.07-2.47,1.07c-0.83,0-1.45-0.23-1.88-0.68
	c-0.4-0.46-0.6-0.98-0.6-1.58c0-0.82,0.24-1.55,0.73-2.18c0.51-0.63,1.14-1.08,1.88-1.37c-0.09-0.06-0.17-0.1-0.26-0.13
	C328.74,5.06,328.66,5.04,328.54,5.04z M293.94,38.75c0.8-0.03,1.48-0.26,2.05-0.68c0.6-0.4,1.12-0.94,1.58-1.62
	c0.82-1.31,1.65-3.36,2.47-6.14c0.85-2.79,1.71-6.16,2.56-10.11c0.88-3.95,1.76-8.29,2.65-13.01l0.73,0.9
	c-0.46,2.33-0.94,4.71-1.45,7.13c-0.48,2.39-0.98,4.74-1.49,7.04c-0.51,2.28-1.04,4.39-1.58,6.36c-0.54,1.96-1.08,3.67-1.62,5.12
	c-0.54,1.42-1.07,2.47-1.58,3.16c-0.51,0.68-1.12,1.29-1.83,1.83c-0.68,0.57-1.59,0.85-2.73,0.85c-1.22,0-2.12-0.31-2.69-0.94
	c-0.57-0.6-0.85-1.34-0.85-2.22c0-0.97,0.31-1.81,0.94-2.52c0.63-0.74,1.45-1.11,2.48-1.11c0.85,0,1.48,0.23,1.88,0.68
	c0.4,0.46,0.6,0.98,0.6,1.58c0,0.82-0.26,1.55-0.77,2.18c-0.48,0.63-1.08,1.08-1.79,1.37c0.06,0.06,0.13,0.1,0.21,0.13
	C293.77,38.73,293.85,38.75,293.94,38.75z"/>
</svg>
