<svg width="64" height="47" viewBox="0 0 64 47" fill="none" xmlns="http://www.w3.org/2000/svg">
<g id="Property 1=Default">
<rect id="Rectangle 95" x="1" y="1" width="62" height="45" rx="22.5" fill="#FFFDE6" stroke="#FFD951" stroke-width="2"/>
<path id="Vector" d="M40.8169 17.1675C40.7439 17.0801 40.6526 17.0099 40.5494 16.9617C40.4463 16.9134 40.3338 16.8885 40.22 16.8885H24.5378L24.0625 14.2774C23.9974 13.919 23.8085 13.5948 23.5289 13.3614C23.2493 13.1279 22.8966 13.0001 22.5324 13H20.7777C20.5714 13 20.3736 13.0819 20.2278 13.2278C20.0819 13.3736 20 13.5714 20 13.7777C20 13.984 20.0819 14.1818 20.2278 14.3276C20.3736 14.4735 20.5714 14.5554 20.7777 14.5554H22.5275L25.0122 28.1933C25.0854 28.5977 25.2642 28.9757 25.5304 29.2889C25.1629 29.632 24.8978 30.0703 24.7642 30.555C24.6306 31.0396 24.6339 31.5519 24.7737 32.0348C24.9135 32.5177 25.1843 32.9525 25.556 33.291C25.9278 33.6294 26.3861 33.8582 26.88 33.9521C27.3739 34.046 27.8842 34.0013 28.3542 33.8229C28.8242 33.6444 29.2357 33.3393 29.5429 32.9414C29.8501 32.5434 30.0411 32.0681 30.0947 31.5682C30.1483 31.0684 30.0624 30.5634 29.8465 30.1093H34.2619C34.0879 30.4736 33.9979 30.8722 33.9984 31.2759C33.9984 31.8142 34.1581 32.3405 34.4572 32.7881C34.7563 33.2357 35.1814 33.5846 35.6787 33.7906C36.1761 33.9966 36.7234 34.0505 37.2514 33.9455C37.7794 33.8405 38.2644 33.5812 38.6451 33.2006C39.0257 32.8199 39.285 32.3349 39.39 31.8069C39.495 31.2789 39.4411 30.7316 39.2351 30.2342C39.0291 29.7369 38.6802 29.3118 38.2326 29.0127C37.785 28.7136 37.2587 28.5539 36.7204 28.5539H27.3074C27.1253 28.5539 26.9489 28.49 26.8091 28.3732C26.6693 28.2565 26.5749 28.0944 26.5423 27.9153L26.2342 26.2208H37.5107C38.0571 26.2208 38.5861 26.0289 39.0055 25.6788C39.425 25.3286 39.7082 24.8424 39.8059 24.3048L40.9879 17.8052C41.008 17.6929 41.003 17.5775 40.9734 17.4673C40.9439 17.3571 40.8904 17.2547 40.8169 17.1675ZM28.5546 31.2759C28.5546 31.5066 28.4862 31.7321 28.358 31.924C28.2298 32.1158 28.0476 32.2653 27.8345 32.3536C27.6213 32.4419 27.3868 32.465 27.1605 32.42C26.9342 32.375 26.7263 32.2639 26.5632 32.1007C26.4001 31.9376 26.289 31.7297 26.2439 31.5035C26.1989 31.2772 26.222 31.0426 26.3103 30.8295C26.3986 30.6163 26.5481 30.4341 26.74 30.3059C26.9318 30.1777 27.1573 30.1093 27.3881 30.1093C27.6975 30.1093 27.9942 30.2322 28.2129 30.451C28.4317 30.6698 28.5546 30.9665 28.5546 31.2759ZM37.8869 31.2759C37.8869 31.5066 37.8185 31.7321 37.6903 31.924C37.5621 32.1158 37.3799 32.2653 37.1668 32.3536C36.9536 32.4419 36.7191 32.465 36.4928 32.42C36.2665 32.375 36.0586 32.2639 35.8955 32.1007C35.7324 31.9376 35.6213 31.7297 35.5762 31.5035C35.5312 31.2772 35.5543 31.0426 35.6426 30.8295C35.7309 30.6163 35.8804 30.4341 36.0723 30.3059C36.2641 30.1777 36.4896 30.1093 36.7204 30.1093C37.0298 30.1093 37.3265 30.2322 37.5452 30.451C37.764 30.6698 37.8869 30.9665 37.8869 31.2759ZM38.2757 24.0268C38.2431 24.2065 38.1483 24.3689 38.0079 24.4857C37.8674 24.6025 37.6904 24.6661 37.5078 24.6655H25.9513L24.8207 18.4439H39.2877L38.2757 24.0268Z" fill="#1F1F1F"/>
</g>
</svg>
