<?xml version="1.0" encoding="utf-8"?>
<!-- Generator: Adobe Illustrator 25.4.1, SVG Export Plug-In . SVG Version: 6.00 Build 0)  -->
<svg version="1.1" id="圖層_1" xmlns="http://www.w3.org/2000/svg" xmlns:xlink="http://www.w3.org/1999/xlink" x="0px" y="0px"
	 viewBox="0 0 27.17 27.16" style="enable-background:new 0 0 27.17 27.16;" xml:space="preserve">
<style type="text/css">
	.st0{fill:#F9FAF8;fill-opacity:0.12;}
	.st1{fill:#FFFFFF;}
</style>
<circle class="st0" cx="13.58" cy="13.58" r="13.59"/>
<path class="st1" d="M19.6,10.65c-0.41,0.18-0.84,0.29-1.29,0.36c0.45-0.27,0.81-0.7,0.97-1.22c-0.43,0.25-0.9,0.43-1.42,0.54
	c-0.41-0.43-0.99-0.7-1.63-0.7c-1.22,0-2.21,0.99-2.21,2.21c0,0.18,0.02,0.34,0.07,0.5c-1.83-0.09-3.48-0.97-4.59-2.33
	c-0.18,0.34-0.29,0.7-0.29,1.11c0,0.77,0.38,1.45,0.99,1.85c-0.36-0.02-0.7-0.11-1.02-0.27v0.02c0,1.08,0.77,1.99,1.78,2.19
	c-0.18,0.05-0.38,0.07-0.59,0.07c-0.14,0-0.29-0.02-0.43-0.05c0.29,0.88,1.11,1.54,2.08,1.54c-0.77,0.59-1.72,0.95-2.76,0.95
	c-0.18,0-0.36,0-0.52-0.02c0.99,0.63,2.15,0.99,3.41,0.99c4.09,0,6.33-3.39,6.33-6.33c0-0.09,0-0.2,0-0.29
	C18.92,11.49,19.3,11.11,19.6,10.65z"/>
</svg>
