<svg width="41" height="37" viewBox="0 0 41 37" fill="none" xmlns="http://www.w3.org/2000/svg">
<path id="Vector" d="M40.6424 7.34271C40.4999 7.18879 40.3217 7.06499 40.1203 6.98005C39.9189 6.89511 39.6994 6.8511 39.4771 6.85114L8.85957 6.85114L7.93148 2.2506C7.80436 1.61916 7.4357 1.048 6.88977 0.636714C6.34385 0.225425 5.65528 9.27044e-05 4.94413 -4.40603e-08L1.51835 -1.3531e-08C1.11566 -9.94236e-09 0.72946 0.144363 0.444714 0.40133C0.159968 0.658298 -1.05886e-08 1.00682 -1.44105e-08 1.37023C-1.82324e-08 1.73363 0.159968 2.08216 0.444714 2.33912C0.72946 2.59609 1.11566 2.74046 1.51835 2.74046L4.93464 2.74046L9.78577 26.7691C9.92866 27.4817 10.2776 28.1476 10.7974 28.6994C10.08 29.3041 9.56228 30.0762 9.30152 30.9302C9.04076 31.7841 9.04718 32.6866 9.32007 33.5375C9.59295 34.3884 10.1216 35.1544 10.8475 35.7507C11.5734 36.347 12.4681 36.7502 13.4324 36.9156C14.3967 37.0811 15.3929 37.0022 16.3106 36.6879C17.2283 36.3736 18.0316 35.836 18.6314 35.1348C19.2312 34.4336 19.6041 33.5962 19.7087 32.7155C19.8134 31.8347 19.6457 30.945 19.2242 30.145L27.8446 30.145C27.505 30.7868 27.3292 31.4891 27.3303 32.2003C27.3303 33.1489 27.642 34.0761 28.2259 34.8648C28.8098 35.6534 29.6398 36.2681 30.6109 36.6311C31.5819 36.9941 32.6504 37.089 33.6813 36.904C34.7121 36.719 35.659 36.2622 36.4022 35.5915C37.1455 34.9208 37.6516 34.0663 37.8566 33.136C38.0617 32.2057 37.9564 31.2414 37.5542 30.3651C37.152 29.4888 36.4709 28.7398 35.5969 28.2128C34.723 27.6858 33.6956 27.4046 32.6445 27.4046L14.2668 27.4046C13.9112 27.4045 13.5669 27.2918 13.294 27.0862C13.021 26.8806 12.8367 26.595 12.7731 26.2793L12.1715 23.2939L34.1875 23.2939C35.2543 23.2937 36.2871 22.9557 37.106 22.3388C37.9249 21.7219 38.4779 20.8651 38.6686 19.918L40.9765 8.46629C41.0155 8.26836 41.0059 8.0651 40.9481 7.87092C40.8904 7.67674 40.786 7.49641 40.6424 7.34271ZM16.7018 32.2003C16.7018 32.6069 16.5683 33.0042 16.318 33.3422C16.0678 33.6802 15.7121 33.9437 15.2959 34.0992C14.8797 34.2548 14.4218 34.2955 13.98 34.2162C13.5382 34.1369 13.1324 33.9411 12.8139 33.6537C12.4954 33.3662 12.2784 33 12.1906 32.6013C12.1027 32.2026 12.1478 31.7894 12.3202 31.4138C12.4925 31.0382 12.7845 30.7172 13.159 30.4914C13.5335 30.2656 13.9739 30.145 14.4243 30.145C15.0284 30.145 15.6077 30.3616 16.0348 30.747C16.4619 31.1325 16.7018 31.6552 16.7018 32.2003ZM34.922 32.2003C34.922 32.6069 34.7885 33.0042 34.5382 33.3422C34.288 33.6802 33.9323 33.9437 33.5161 34.0992C33.0999 34.2548 32.642 34.2955 32.2002 34.2162C31.7584 34.1369 31.3526 33.9411 31.0341 33.6537C30.7156 33.3662 30.4986 33 30.4108 32.6013C30.3229 32.2026 30.368 31.7894 30.5404 31.4138C30.7127 31.0382 31.0047 30.7172 31.3792 30.4914C31.7537 30.2656 32.1941 30.145 32.6445 30.145C33.2486 30.145 33.8279 30.3616 34.255 30.747C34.6821 31.1325 34.922 31.6552 34.922 32.2003ZM35.6812 19.4281C35.6175 19.7447 35.4323 20.031 35.1582 20.2367C34.884 20.4425 34.5384 20.5546 34.1819 20.5534L11.6192 20.5534L9.41187 9.59159L37.657 9.59159L35.6812 19.4281Z" fill="#565656"/>
</svg>
